<svg version="1.1" viewBox="0 0 24 24" xmlns="http://www.w3.org/2000/svg">
 <path d="m8.4 3.9c0.87-1 2.2-1.7 3.6-1.7 2.6 0 4.8 2.1 4.8 4.8v4c0 0.41-0.052 0.81-0.15 1.2z"/>
 <path d="m15 15 1.1 1.1c-1 0.74-2.3 1.2-3.7 1.2-3.5 0-6.2-2.8-6.2-6.2v-1c0-0.41-0.34-0.75-0.75-0.75s-0.75 0.34-0.75 0.75v1c0 4 3.1 7.3 7 7.7v2.3c0 0.41 0.34 0.75 0.75 0.75s0.75-0.34 0.75-0.75v-2.3c1.5-0.14 2.9-0.71 4-1.6l1.6 1.6c0.39 0.39 1 0.39 1.4 0 0.39-0.39 0.39-1 0-1.4l-1.6-1.6c1-1.3 1.6-2.9 1.6-4.7v-1c0-0.41-0.34-0.75-0.75-0.75s-0.75 0.34-0.75 0.75v1c0 1.4-0.44 2.6-1.2 3.7l-11-11c-0.39-0.39-1-0.39-1.4 0-0.39 0.39-0.39 1 0 1.4l3 3v3.3c0 2.6 2.1 4.8 4.8 4.8 0.95 0 1.8-0.28 2.6-0.76z"/>
</svg>
